<?xml version="1.0" standalone="no"?>
<!DOCTYPE svg PUBLIC "-//W3C//DTD SVG 20010904//EN"
 "http://www.w3.org/TR/2001/REC-SVG-20010904/DTD/svg10.dtd">
<svg version="1.0" xmlns="http://www.w3.org/2000/svg"
 width="512.000000pt" height="512.000000pt" viewBox="0 0 512.000000 512.000000"
 preserveAspectRatio="xMidYMid meet">
<metadata>
Created by potrace 1.11, written by Peter Selinger 2001-2013
</metadata>
<g transform="translate(0.000000,512.000000) scale(0.100000,-0.100000)"
fill="#000000" stroke="none">
<path d="M3990 5008 c-14 -6 -37 -10 -52 -10 -16 0 -28 -4 -28 -9 0 -6 -4 -8
-9 -5 -11 7 -259 -56 -368 -95 -48 -17 -92 -32 -98 -33 -15 -4 -65 -26 -115
-51 -44 -22 -73 -24 -155 -9 -117 21 -824 39 -841 21 -4 -3 -15 -2 -25 4 -11
5 -19 6 -19 2 0 -4 -37 -9 -83 -10 -75 -1 -202 -9 -202 -13 0 -1 -20 -3 -45
-4 -25 -2 -55 -6 -67 -10 -14 -4 -40 1 -70 15 -101 45 -139 60 -163 65 -8 2
-23 7 -35 12 -39 19 -82 33 -103 35 -12 1 -22 4 -22 7 0 4 -6 7 -12 8 -16 1
-98 21 -118 28 -8 3 -17 6 -20 6 -3 1 -21 5 -40 10 -19 5 -53 11 -75 14 -22 3
-44 9 -50 13 -5 4 -26 8 -46 10 -33 2 -37 -1 -60 -45 -13 -26 -24 -50 -24 -53
-1 -3 -6 -15 -11 -26 -21 -38 -71 -194 -81 -250 -2 -11 -8 -42 -13 -70 -20
-100 -33 -312 -19 -320 4 -3 4 -16 -1 -29 -5 -13 -7 -26 -5 -28 2 -2 7 -35 10
-73 4 -39 9 -74 12 -79 3 -4 7 -25 9 -45 4 -47 12 -96 14 -96 1 0 3 -12 4 -27
1 -16 -1 -28 -5 -28 -3 0 -6 -6 -6 -12 -2 -30 -12 -123 -14 -123 -4 0 -9 -57
-14 -165 -3 -63 -6 -115 -6 -115 -1 0 -2 -22 -3 -50 -1 -27 -10 -68 -20 -90
-45 -102 -109 -280 -111 -310 0 -5 -4 -16 -8 -22 -5 -7 -6 -13 -3 -13 3 0 1
-12 -5 -27 -10 -25 -21 -85 -22 -120 0 -7 -3 -13 -6 -13 -3 0 -7 -24 -9 -54
-2 -30 -5 -65 -9 -78 -11 -47 -5 -513 8 -513 2 0 4 -15 14 -80 9 -61 12 -75
30 -145 9 -36 18 -72 20 -80 25 -115 103 -328 166 -452 10 -21 15 -38 11 -38
-4 0 -2 -4 3 -8 6 -4 21 -29 35 -57 13 -27 40 -77 59 -110 19 -33 34 -61 32
-63 -1 -2 7 -12 19 -22 12 -10 20 -21 18 -24 -2 -3 8 -19 21 -35 23 -27 25
-28 56 -15 18 7 35 10 39 7 3 -4 6 -2 6 4 0 5 6 10 13 10 6 0 38 12 70 27 33
15 60 26 61 24 2 -2 18 -25 36 -53 19 -27 37 -51 42 -53 4 -2 8 -8 8 -13 0 -9
11 -23 63 -84 15 -18 27 -35 27 -39 0 -3 -74 -6 -165 -6 -172 0 -207 -6 -254
-46 -25 -21 -63 -89 -55 -97 3 -3 1 -14 -5 -25 -6 -11 -7 -22 -4 -26 3 -3 8
-18 9 -32 2 -14 11 -35 20 -45 9 -10 14 -19 10 -19 -13 0 48 -45 78 -58 18 -8
73 -13 144 -13 l116 0 -35 -23 c-51 -35 -79 -73 -86 -114 -8 -52 -7 -93 3
-101 5 -3 11 -15 12 -26 4 -21 71 -89 80 -80 3 3 11 0 19 -6 24 -20 97 -11
166 21 37 17 67 35 67 41 0 6 4 8 9 5 5 -3 20 3 34 15 15 11 28 19 29 17 2 -2
21 8 43 22 51 31 95 51 95 43 0 -4 7 2 15 13 8 10 15 15 15 9 0 -7 3 -7 8 0 4
6 38 26 75 45 38 19 76 42 85 50 48 42 46 42 128 20 125 -32 199 -39 354 -35
157 4 176 6 292 35 43 11 79 20 81 20 3 0 20 -13 38 -30 19 -16 43 -33 54 -36
11 -4 22 -9 25 -13 3 -3 37 -22 75 -41 39 -19 72 -38 73 -42 2 -5 8 -8 12 -8
5 0 32 -13 60 -30 27 -16 50 -27 50 -23 0 3 8 0 18 -9 9 -8 39 -25 67 -39 27
-13 55 -29 63 -36 12 -11 67 -26 102 -28 23 -1 98 32 118 52 77 76 74 198 -6
269 -15 13 -32 24 -39 24 -6 0 -15 5 -18 10 -4 7 30 10 102 9 138 -1 159 5
208 55 38 40 74 126 53 126 -5 0 -7 4 -4 9 12 19 -8 73 -38 105 -54 57 -66 61
-260 66 -171 5 -179 6 -162 22 10 10 15 18 12 18 -3 0 3 9 14 20 11 11 20 25
20 31 0 5 5 7 10 4 6 -3 10 -1 10 5 0 6 18 35 39 64 22 30 38 56 35 59 -3 3 3
10 13 15 13 7 33 3 73 -15 60 -27 78 -35 128 -51 30 -10 33 -9 47 19 9 16 20
29 26 29 6 0 8 4 5 9 -4 5 -2 11 2 13 9 3 42 58 86 143 12 21 27 45 34 53 7 7
10 18 7 23 -4 5 -1 9 5 9 6 0 8 4 5 10 -3 5 -1 10 4 10 6 0 11 4 11 9 0 5 12
35 27 67 15 33 28 61 28 64 1 3 9 23 19 45 10 22 19 47 21 55 2 8 17 50 33 93
17 42 28 77 27 77 -2 0 3 16 11 35 8 19 14 36 13 37 -2 6 14 84 19 93 3 5 7
20 8 33 2 14 6 32 10 41 4 9 9 32 11 51 5 41 11 75 13 75 3 0 9 59 13 120 1
28 5 55 8 60 4 9 4 330 -1 330 -1 0 -3 20 -6 45 -2 25 -8 70 -14 100 -5 30
-12 73 -16 95 -14 92 -82 303 -135 420 -15 34 -23 72 -25 120 -1 39 -2 70 -3
70 -1 0 -3 45 -6 100 -2 55 -6 109 -8 120 -3 11 -8 50 -12 87 -3 37 -10 70
-14 72 -5 4 -7 61 -1 61 1 0 3 11 6 25 2 14 9 49 14 79 5 29 7 57 5 61 -3 5
-2 11 3 13 14 9 20 236 9 367 -8 96 -33 232 -55 290 -3 8 -6 17 -6 20 -9 36
-32 100 -36 100 -3 0 -6 10 -7 22 -1 11 -7 24 -14 28 -6 4 -8 13 -5 19 4 6 3
11 -2 11 -6 0 -15 12 -20 28 -18 48 -34 61 -62 50z"/>
</g>
</svg>
